<?xml version="1.0" encoding="utf-8"?>
<!-- Generator: Adobe Illustrator 24.0.1, SVG Export Plug-In . SVG Version: 6.00 Build 0)  -->
<svg version="1.1" id="Ebene_1" xmlns="http://www.w3.org/2000/svg" xmlns:xlink="http://www.w3.org/1999/xlink" x="0px" y="0px"
	 width="142px" height="113.7px" viewBox="0 0 142 113.7" style="enable-background:new 0 0 142 113.7;" xml:space="preserve">
<g id="Gruppe_205" transform="translate(-249.73 -165.361)">
	<path id="Pfad_5" d="M250.3,212.1h2.7l0.3,3h0c1.2-2.4,3.9-3.8,7.1-3.8c3.2,0,5.4,1.5,6.4,4.1h0c1.6-2.6,4.5-4.2,7.6-4.1
		c4.4,0,7,2.8,7,7.6v13.5h-3.1v-13.3c0-3.1-1.8-5-4.9-5c-3.9,0-6.2,2.9-6.2,7v11.3h-3v-13.3c0-3.1-1.8-5-4.9-5c-3.9,0-6.2,2.9-6.2,7
		v11.3h-3.1L250.3,212.1z"/>
	<path id="Pfad_6" d="M284.7,227.1c0-3.3,2.6-5.9,9.2-6.7l5-0.6c1-0.1,1.6-0.7,1.6-1.6c0-2.5-2.4-4.2-6-4.2c-3.8,0-6.5,2.5-6.7,4.9
		l-2.8-1.2c0.4-3.3,4.3-6.5,9.6-6.5c5.2,0,8.8,2.9,8.8,7.4v13.7h-2.8l-0.3-3.4h0c-1.7,2.7-4.7,4.4-7.9,4.2
		C287.9,233.2,284.7,230.7,284.7,227.1z M300.4,223.7v-1.4l-6.3,0.8c-4.9,0.6-6.4,2.2-6.4,4c0,2.1,2.2,3.4,5.3,3.4
		C297.3,230.4,300.4,227.7,300.4,223.7L300.4,223.7z"/>
	<path id="Pfad_7" d="M307.6,202.9h3.1v18.4h0l8.6-9.2h4.1l-7.7,8l8.4,12.3h-3.7l-6.8-10.1l-2.9,3.1v7h-3.1L307.6,202.9z"/>
	<path id="Pfad_8" d="M323.8,222.1c0-6.2,4.3-10.7,10.4-10.7c6,0,9.9,4.5,9.9,10.8c0,0.4,0,0.8,0,1.2H327c0.6,4.5,4.7,7.7,9.2,7.1
		c2.4-0.3,4.6-1.7,5.9-3.8l2.7,1.1c-1.3,3.3-5.1,5.5-9.7,5.5c-6,0.2-11-4.5-11.2-10.5C323.8,222.5,323.8,222.3,323.8,222.1z
		 M340.9,220.6c-0.4-4.1-3-6.5-6.7-6.5c-3.8,0-6.6,2.6-7.1,6.5H340.9z"/>
	<path id="Pfad_9" d="M362.9,217.6l-2.7,0.9c-0.3-2.9-1.8-4.4-4-4.4c-3.3,0-5.3,2.7-5.3,7.1v11.2h-3.1v-20.3h2.6l0.3,3.2h0
		c1-2.4,3.3-4,5.9-4C360.1,211.3,362.5,213.6,362.9,217.6z"/>
	<g id="Gruppe_6" transform="translate(366.797 208.094)">
		<path id="Pfad_10" d="M10.2,13.6L0.4,0h4l7.9,11.4L20.5,0h4l-10,13.6l10.4,14.8h-4l-8.6-12.3L4,28.4H0L10.2,13.6z"/>
	</g>
	<path id="Pfad_11" d="M249.7,255.7c0-9.3,5.5-15.2,14.2-15.2c6-0.2,11.2,4.1,12.2,9.9l-3.2,0.8c-0.6-4.5-4.5-7.8-9-7.7
		c-6.6,0-10.8,4.7-10.8,12.2c0,7.4,4.6,12.2,11.7,12.2c5.4,0.2,10.1-3.9,10.7-9.3l3.2,0.8c-1.1,7-6.5,11.5-13.9,11.5
		C255.6,270.9,249.7,265,249.7,255.7z"/>
	<path id="Pfad_12" d="M281.5,240.3h3.1v12.3h0c1.8-2.5,4.7-4,7.8-3.8c4.7,0,7.5,3,7.5,8v13.1h-3.1v-12.8c0-3.5-2.1-5.7-5.3-5.7
		c-3.7-0.2-6.8,2.7-7,6.4c0,0.2,0,0.4,0,0.6v11.5h-3.1L281.5,240.3z"/>
	<path id="Pfad_13" d="M302.6,264.6c0-3.3,2.6-5.9,9.2-6.7l5-0.6c1-0.1,1.6-0.7,1.6-1.6c0-2.5-2.4-4.2-6-4.2c-3.8,0-6.5,2.5-6.7,4.9
		l-2.8-1.2c0.4-3.3,4.3-6.5,9.6-6.5c5.2,0,8.8,2.9,8.8,7.4v13.7h-2.8l-0.3-3.4h0c-1.7,2.7-4.7,4.4-7.9,4.2
		C305.8,270.7,302.6,268.2,302.6,264.6z M318.4,261.2v-1.4l-6.3,0.8c-4.9,0.6-6.4,2.2-6.4,4c0,2.1,2.2,3.4,5.3,3.4
		C315.2,267.9,318.4,265.1,318.4,261.2L318.4,261.2z"/>
	<path id="Pfad_14" d="M343.6,256.7v13.1h-3.1v-12.8c0-3.5-2.1-5.7-5.3-5.7c-3.7-0.2-6.8,2.7-7,6.4c0,0.2,0,0.4,0,0.6v11.5h-3.1
		v-20.3h2.8l0.3,3h0c1.8-2.5,4.7-4,7.8-3.8C340.7,248.7,343.6,251.7,343.6,256.7z"/>
	<path id="Pfad_15" d="M345,273.7l2.4-2c1.9,3,5.2,4.7,8.8,4.7c5,0,8.4-3.2,8.4-8.1V266h0c-1.7,2.5-4.6,4.1-7.7,4.1
		c-6,0-10.1-4.3-10.1-10.5c0-6.4,4.1-10.7,10.1-10.7c3.1,0.1,5.9,1.6,7.7,4h0l0.3-3.3h2.7v18.7c0,6.6-4.5,10.9-11.4,10.9
		C351.4,279.1,347,276.9,345,273.7z M364.6,259.6c0-4.5-3.1-8-7.4-8c-4.4,0-7.5,3.3-7.5,8c0,4.6,3.1,7.8,7.5,7.8
		C361.6,267.3,364.6,264,364.6,259.6L364.6,259.6z"/>
	<path id="Pfad_16" d="M370.8,259.5c0-6.2,4.3-10.7,10.4-10.7c6,0,9.9,4.5,9.9,10.8c0,0.4,0,0.8,0,1.2H374c0.6,4.5,4.7,7.7,9.2,7.1
		c2.4-0.3,4.6-1.7,5.9-3.8l2.7,1.1c-1.3,3.3-5.1,5.5-9.7,5.5c-6,0.2-11-4.5-11.2-10.5C370.8,260,370.8,259.7,370.8,259.5z
		 M387.9,258c-0.4-4.1-3-6.5-6.7-6.5c-3.8,0-6.6,2.6-7.1,6.5H387.9z"/>
	<path id="Pfad_17" d="M249.7,180.8c0-9.3,5.5-15.2,14.2-15.2c6-0.2,11.2,4.1,12.2,9.9l-3.2,0.8c-0.6-4.5-4.5-7.8-9-7.7
		c-6.6,0-10.8,4.7-10.8,12.2c0,7.4,4.6,12.2,11.7,12.2c5.4,0.2,10.1-3.9,10.7-9.3l3.2,0.8c-1.1,7-6.5,11.5-13.9,11.5
		C255.6,195.9,249.7,190,249.7,180.8z"/>
	<path id="Pfad_18" d="M281.5,165.4h3.1v12.3h0c1.8-2.5,4.7-4,7.8-3.8c4.7,0,7.5,3,7.5,8v13.1h-3.1v-12.8c0-3.5-2.1-5.7-5.3-5.7
		c-3.7-0.2-6.8,2.7-7,6.4c0,0.2,0,0.4,0,0.6v11.5h-3.1L281.5,165.4z"/>
	<path id="Pfad_19" d="M302.6,189.6c0-3.3,2.6-5.9,9.2-6.7l5-0.6c1-0.1,1.6-0.7,1.6-1.6c0-2.5-2.4-4.2-6-4.2c-3.8,0-6.5,2.5-6.7,4.9
		l-2.8-1.2c0.4-3.3,4.3-6.5,9.6-6.5c5.2,0,8.8,2.9,8.8,7.4v13.7h-2.8l-0.3-3.4h0c-1.7,2.7-4.7,4.4-7.9,4.2
		C305.8,195.7,302.6,193.2,302.6,189.6z M318.4,186.2v-1.4l-6.3,0.8c-4.9,0.6-6.4,2.2-6.4,4c0,2.1,2.2,3.4,5.3,3.4
		C315.2,192.9,318.4,190.2,318.4,186.2z"/>
	<path id="Pfad_20" d="M343.6,181.8v13.1h-3.1v-12.8c0-3.5-2.1-5.7-5.3-5.7c-3.7-0.2-6.8,2.7-7,6.4c0,0.2,0,0.4,0,0.6v11.5h-3.1
		v-20.3h2.8l0.3,3h0c1.8-2.5,4.7-4,7.8-3.8C340.7,173.8,343.6,176.8,343.6,181.8z"/>
	<path id="Pfad_21" d="M345,198.7l2.4-2c1.9,3,5.2,4.7,8.8,4.7c5,0,8.4-3.2,8.4-8.1v-2.3h0c-1.7,2.5-4.6,4.1-7.7,4.1
		c-6,0-10.1-4.3-10.1-10.5c0-6.4,4.1-10.7,10.1-10.7c3.1,0.1,5.9,1.6,7.7,4h0l0.3-3.3h2.7v18.7c0,6.6-4.5,10.9-11.4,10.9
		C351.4,204.2,347,202,345,198.7z M364.6,184.6c0-4.5-3.1-8-7.4-8c-4.4,0-7.5,3.3-7.5,8c0,4.6,3.1,7.8,7.5,7.8
		C361.6,192.4,364.6,189,364.6,184.6L364.6,184.6z"/>
	<path id="Pfad_22" d="M370.8,184.5c0-6.2,4.3-10.7,10.4-10.7c6,0,9.9,4.5,9.9,10.8c0,0.4,0,0.8,0,1.2H374c0.6,4.5,4.7,7.7,9.2,7.1
		c2.4-0.3,4.6-1.7,5.9-3.8l2.7,1.1c-1.3,3.3-5.1,5.5-9.7,5.5c-6,0.2-11-4.5-11.2-10.5C370.8,185,370.8,184.8,370.8,184.5z
		 M387.9,183.1c-0.4-4.1-3-6.5-6.7-6.5c-3.8,0-6.6,2.6-7.1,6.5H387.9z"/>
</g>
</svg>
